<?xml version="1.0" standalone="no"?>
<!DOCTYPE svg PUBLIC "-//W3C//DTD SVG 20010904//EN"
 "http://www.w3.org/TR/2001/REC-SVG-20010904/DTD/svg10.dtd">
<svg version="1.0" xmlns="http://www.w3.org/2000/svg"
 width="530.000000pt" height="518.000000pt" viewBox="0 0 530.000000 518.000000"
 preserveAspectRatio="xMidYMid meet">

<g transform="translate(0.000000,518.000000) scale(0.100000,-0.100000)"
fill="#000000" stroke="none">
<path d="M3041 5154 c-396 -39 -909 -139 -1448 -284 -280 -75 -655 -185 -685
-201 -22 -12 -21 -47 3 -62 11 -7 492 26 1555 107 l1539 117 25 25 c21 21 25
34 25 85 0 56 -3 63 -30 85 -77 63 -223 112 -390 133 -118 14 -426 12 -594 -5z"/>
<path d="M3930 4530 c-25 -5 -803 -137 -1730 -294 -1291 -219 -1691 -290
-1710 -304 -79 -58 -73 -174 12 -218 29 -15 186 -13 2187 31 1186 25 2175 48
2197 51 l41 5 -13 62 c-55 266 -216 493 -419 595 -121 61 -185 74 -360 78 -88
1 -180 -1 -205 -6z"/>
<path d="M4265 3604 c-16 -3 -133 -18 -260 -35 -1463 -192 -3922 -530 -3952
-544 -41 -18 -61 -72 -43 -116 26 -63 -153 -56 2487 -89 1330 -16 2500 -30
2600 -30 l182 0 8 38 c12 58 8 241 -6 302 -55 227 -215 379 -469 447 -88 24
-117 26 -307 29 -115 1 -223 0 -240 -2z"/>
<path d="M2770 2349 c-1196 -15 -2295 -29 -2442 -31 -265 -3 -267 -3 -292 -27
-46 -43 -43 -113 7 -146 17 -11 346 -59 1123 -165 1670 -228 3007 -408 3123
-419 628 -64 1002 168 1005 624 1 55 -3 121 -7 148 l-8 47 -167 -1 c-92 -1
-1146 -14 -2342 -30z"/>
<path d="M158 1560 c-25 -26 -29 -36 -24 -63 4 -18 14 -40 24 -49 12 -12 521
-124 1787 -393 974 -207 1824 -388 1890 -402 164 -35 390 -37 508 -5 222 61
392 210 498 437 42 89 93 264 80 277 -5 6 -4600 228 -4709 228 -13 0 -37 -14
-54 -30z"/>
<path d="M852 678 c-16 -16 -15 -43 1 -56 53 -44 915 -310 1367 -422 566 -140
966 -197 1305 -187 370 11 519 85 550 273 7 46 -8 115 -28 132 -9 8 -3102 272
-3180 272 -2 0 -8 -5 -15 -12z"/>
</g>
</svg>
